<svg width="276" height="304" viewBox="0 0 276 304" fill="none" xmlns="http://www.w3.org/2000/svg">
<mask id="mask0_230_566" style="mask-type:alpha" maskUnits="userSpaceOnUse" x="0" y="0" width="276" height="304">
<path d="M212.5 0.5H60L9.5 104.5L0.5 200.5C15.8136 257.164 89.8134 303.214 151 303.214C212.187 303.214 260.686 257.164 276 200.5L267.5 92.5L212.5 0.5Z" fill="white"/>
</mask>
<g mask="url(#mask0_230_566)">
<path d="M139.5 311.096C212.757 311.096 272.144 251.861 272.144 178.791C272.144 105.721 212.757 46.4858 139.5 46.4858C66.2424 46.4858 6.85547 105.721 6.85547 178.791C6.85547 251.861 66.2424 311.096 139.5 311.096Z" fill="#85C5E5"/>
<path d="M140.183 11.3848C73.8927 11.3848 20.1514 64.9847 20.1514 131.109V196.151C23.9339 200.338 30.274 203.939 38.5054 206.972L43.82 191.144L49.5896 210.43C110.541 226.604 235.807 220.491 260.214 196.151V131.109C260.214 64.9847 206.472 11.3848 140.183 11.3848Z" fill="#D69AC7"/>
<path d="M36.9045 206.367C37.4312 206.57 37.9619 206.765 38.5005 206.972L43.8192 191.144L49.5887 210.43C67.6315 215.206 91.3042 218.052 116.333 219.039L127.218 208.604L34.0876 138.702C34.0876 138.702 31.6377 179.078 36.9045 206.367Z" fill="#C683B4"/>
<path d="M186.263 147.995L196.361 215.954C210.247 214.227 222.943 211.867 233.512 208.898C233.512 208.898 246.715 194.217 245.291 138.702C243.866 83.1883 186.263 147.995 186.263 147.995Z" fill="#C683B4"/>
<path d="M140.183 11.3848C73.8927 11.3848 20.1514 64.9847 20.1514 131.109V196.151C23.9339 200.338 30.274 203.939 38.5054 206.972L43.82 191.144L49.5896 210.43C110.541 226.604 235.807 220.491 260.214 196.151V131.109C260.214 64.9847 206.472 11.3848 140.183 11.3848Z" stroke="#592D3D" stroke-width="12" stroke-miterlimit="10"/>
<path d="M183.39 229.955C219.603 229.955 212.118 275.42 212.465 325.98H183.39V229.955Z" fill="#FBE8B3"/>
<path d="M192.463 259.067L183.39 274.242L187.93 325.98H200.603C200.91 254.236 192.463 259.067 192.463 259.067Z" fill="#EDD494"/>
<path d="M33.0665 126.99C33.0665 68.3596 80.7191 20.8289 139.5 20.8289C198.28 20.8289 245.933 68.3596 245.933 126.99C245.948 142.787 242.421 158.388 235.611 172.651C228.8 186.913 218.879 199.476 206.572 209.42C204.388 211.192 202.135 212.875 199.813 214.47C175.809 229.669 145.485 229.669 118.109 227.237C115.452 226.839 112.803 226.338 110.173 225.761C99.6676 223.452 89.4971 219.89 80.1006 214.697C77.7784 213.269 75.5268 211.728 73.3456 210.072C71.1532 208.407 69.049 206.63 67.0413 204.747C65.1421 202.988 63.308 201.16 61.5391 199.263C43.2079 179.642 33.031 153.81 33.0665 126.99Z" fill="#FBE8B3"/>
<path d="M47.5742 180.51C47.8535 180.988 48.1288 181.465 48.4161 181.935C48.5876 182.222 48.7672 182.5 48.9467 182.787C49.2101 183.213 49.4734 183.638 49.7447 184.056C49.9363 184.359 50.1437 184.653 50.3273 184.948C50.5906 185.346 50.854 185.744 51.1253 186.142C51.3288 186.444 51.5243 186.747 51.7477 187.049C52.0111 187.447 52.2744 187.813 52.5457 188.195C52.7612 188.502 52.9846 188.804 53.2041 189.111C53.4235 189.417 53.7387 189.847 54.0021 190.213C54.2654 190.579 54.4609 190.822 54.6923 191.124C54.9238 191.427 55.239 191.841 55.5183 192.199C55.7976 192.557 55.9931 192.8 56.2325 193.098C56.4719 193.397 56.7951 193.799 57.0784 194.145C57.3616 194.491 57.5691 194.738 57.8165 195.033C58.0639 195.327 58.3911 195.717 58.6823 196.055C58.9736 196.394 59.1891 196.64 59.4444 196.931L60.3302 197.926C60.5896 198.216 60.8529 198.499 61.1282 198.785C61.4713 199.16 61.8185 199.53 62.1656 199.896L62.6484 200.405C63.1631 200.939 63.6818 201.472 64.2085 201.997L64.3122 202.105C64.8269 202.614 65.3496 203.119 65.8723 203.621L66.5027 204.218C66.8818 204.572 67.2608 204.926 67.6439 205.277L68.1067 205.698C68.5057 206.072 68.9406 206.439 69.3596 206.805C70.663 207.938 71.993 209.024 73.3496 210.064C75.5281 211.72 77.7798 213.261 80.1047 214.689C89.5011 219.862 99.6557 223.444 110.177 225.753C112.807 226.33 115.456 226.827 118.113 227.229C134.911 228.722 152.826 229.291 169.696 226.003C142.871 218.127 14.0502 171.858 95.131 30.4719C94.0457 30.9693 92.9764 31.4827 91.915 32.016L91.6796 32.1314C91.1929 32.3742 90.7061 32.6249 90.2233 32.8796L89.8243 33.0906C88.3241 33.8865 86.8398 34.7103 85.3834 35.57L85.0243 35.7809C84.5615 36.0555 84.1026 36.3341 83.6438 36.6167L83.2967 36.8316C81.8709 37.7204 80.4677 38.6397 79.0872 39.5896L78.6563 39.8881C78.2214 40.1905 77.7944 40.493 77.3675 40.7994L77.1042 40.9865C76.2343 41.6206 75.3752 42.2627 74.5266 42.9127L74.2793 43.1037C73.8803 43.4142 73.4813 43.7325 73.0823 44.0549L72.6154 44.429C72.2164 44.7514 71.8174 45.0737 71.4184 45.4041C70.5765 46.1005 69.7466 46.8169 68.9287 47.5412L68.4738 47.9392L67.4005 48.9142L66.8818 49.3839C65.7433 50.4451 64.6301 51.529 63.5422 52.6354L62.9915 53.1965C62.6763 53.5228 62.3611 53.8492 62.0499 54.1795C61.8664 54.3745 61.6828 54.5775 61.5033 54.7685C60.9553 55.3522 60.4153 55.9439 59.8833 56.5435C59.7038 56.7465 59.5202 56.9415 59.3407 57.1564C59.0574 57.4788 58.7781 57.8051 58.4988 58.1315L57.8963 58.8438C57.625 59.1662 57.3537 59.4886 57.0983 59.8149C56.8829 60.0776 56.6674 60.3442 56.4559 60.6109C56.029 61.1402 55.61 61.6695 55.1951 62.2028C54.9796 62.4814 54.7642 62.76 54.5527 63.0425C54.3412 63.3251 54.0739 63.6753 53.8385 63.9977C53.6031 64.32 53.4116 64.5747 53.2041 64.8653C52.9966 65.1558 52.7532 65.4821 52.5338 65.7926C52.156 66.3232 51.7836 66.8605 51.4165 67.4044C51.217 67.6949 51.0176 67.9934 50.822 68.2879C50.6265 68.5824 50.3831 68.9485 50.1677 69.2828L49.5732 70.2022L48.9029 71.2807C48.7313 71.5553 48.5597 71.8299 48.3921 72.1045C48.037 72.6856 47.6939 73.2706 47.3507 73.8556L46.864 74.7153C46.6485 75.0934 46.433 75.4754 46.2216 75.8575C46.062 76.148 45.9024 76.4385 45.7468 76.729C45.4914 77.2026 45.24 77.6802 44.9887 78.1578L44.5099 79.0891C44.2545 79.5985 43.9991 80.1039 43.7478 80.6173C43.6161 80.8919 43.4804 81.1705 43.3488 81.4491C43.1413 81.8829 42.9498 82.3207 42.7383 82.7584C42.6146 83.0211 42.4949 83.2838 42.3752 83.5544C42.0799 84.2097 41.7913 84.873 41.5094 85.5443C41.4216 85.7512 41.3378 85.9622 41.25 86.1691C41.0386 86.6746 40.8311 87.18 40.6276 87.6894C40.5199 87.9561 40.4161 88.2227 40.3124 88.4854C40.1129 88.9868 39.9134 89.4923 39.7338 89.9977C39.65 90.2166 39.5663 90.4355 39.4865 90.6544C39.2364 91.3522 38.9904 92.0499 38.7483 92.7477L38.5249 93.4243C38.3493 93.9549 38.1777 94.4856 38.0102 95.0162L37.7708 95.7764C37.5832 96.3893 37.3997 97.0021 37.2241 97.619C37.1842 97.7503 37.1443 97.8817 37.1084 98.017C36.9009 98.7493 36.7014 99.4842 36.5099 100.222C36.4461 100.457 36.3902 100.695 36.3304 100.93C36.1907 101.483 36.055 102.037 35.9314 102.594L35.7638 103.29C35.5922 104.046 35.4246 104.803 35.269 105.563L35.2092 105.869C35.0735 106.546 34.9405 107.222 34.8102 107.899C34.7663 108.142 34.7264 108.38 34.6825 108.623C34.5788 109.216 34.479 109.817 34.3872 110.414C34.3553 110.617 34.3194 110.812 34.2915 111.019C34.1718 111.795 34.064 112.575 33.9603 113.359L33.9005 113.876C33.8207 114.509 33.7488 115.146 33.681 115.783C33.6571 116.022 33.6291 116.26 33.6052 116.503C33.5414 117.172 33.4815 117.844 33.4256 118.517C33.4256 118.656 33.4017 118.792 33.3937 118.915C33.3352 119.711 33.2833 120.513 33.2381 121.323C33.2381 121.534 33.2381 121.749 33.2102 121.959C33.1836 122.586 33.1596 123.21 33.1384 123.834C33.1384 124.069 33.1384 124.304 33.1384 124.538C33.1384 125.354 33.1064 126.174 33.1064 126.994C33.1064 126.994 33.1064 127.022 33.1064 127.034C33.1064 127.917 33.1064 128.793 33.1384 129.668C33.1384 129.971 33.1623 130.273 33.1703 130.576C33.1902 131.161 33.2102 131.746 33.2381 132.331C33.2381 132.685 33.282 133.035 33.302 133.389C33.3339 133.919 33.3618 134.448 33.4017 134.981C33.4296 135.379 33.4655 135.734 33.4975 136.108C33.5414 136.609 33.5813 137.111 33.6331 137.608C33.669 138.006 33.7169 138.38 33.7568 138.766C33.8127 139.248 33.8645 139.733 33.9244 140.215C33.9723 140.613 34.0281 141.011 34.08 141.389C34.1438 141.858 34.2077 142.332 34.2795 142.802C34.3394 143.2 34.4032 143.598 34.467 143.996C34.5389 144.457 34.6147 144.923 34.6945 145.385C34.7663 145.783 34.8381 146.18 34.9139 146.578C34.9977 147.036 35.0855 147.494 35.1733 147.948C35.261 148.401 35.3369 148.743 35.4206 149.141C35.5164 149.595 35.6122 150.045 35.7159 150.495C35.8196 150.944 35.8915 151.291 35.9872 151.661C36.091 152.11 36.2027 152.556 36.3144 152.998C36.4261 153.44 36.5099 153.774 36.6097 154.156C36.7294 154.602 36.8491 155.044 36.9728 155.485C37.0765 155.883 37.1842 156.249 37.2959 156.627C37.4236 157.069 37.5553 157.507 37.6949 157.945C37.8346 158.383 37.9264 158.697 38.0461 159.075C38.1658 159.453 38.3254 159.947 38.469 160.38C38.6126 160.814 38.7164 161.125 38.8441 161.495C38.9957 161.929 39.1473 162.362 39.3029 162.796C39.4346 163.158 39.5623 163.524 39.7019 163.887L40.1967 165.188C40.3363 165.542 40.472 165.9 40.5957 166.255C40.7712 166.688 40.9508 167.126 41.1303 167.56C41.274 167.902 41.4136 168.248 41.5612 168.591C41.7488 169.036 41.9603 169.474 42.1398 169.916C42.2874 170.242 42.4311 170.573 42.5787 170.899C42.7862 171.361 43.0056 171.814 43.2171 172.268L43.648 173.183C43.8914 173.685 44.1428 174.178 44.3942 174.676C44.5218 174.927 44.6415 175.181 44.7732 175.432C45.5393 176.92 46.3373 178.389 47.1672 179.838C47.2829 180.025 47.4305 180.267 47.5742 180.51Z" fill="#EDD494"/>
<path d="M33.0665 126.99C33.0665 68.3596 80.7191 20.8289 139.5 20.8289C198.28 20.8289 245.933 68.3596 245.933 126.99C245.948 142.787 242.421 158.388 235.611 172.651C228.8 186.913 218.879 199.476 206.572 209.42C204.388 211.192 202.135 212.875 199.813 214.47C175.809 229.669 145.485 229.669 118.109 227.237C115.452 226.839 112.803 226.338 110.173 225.761C99.6676 223.452 89.4971 219.89 80.1006 214.697C77.7784 213.269 75.5268 211.728 73.3456 210.072C71.1532 208.407 69.049 206.63 67.0413 204.747C65.1421 202.988 63.308 201.16 61.5391 199.263C43.2079 179.642 33.031 153.81 33.0665 126.99Z" stroke="#592D3D" stroke-width="12" stroke-miterlimit="10"/>
<path d="M94.0616 229.955C57.8444 229.955 65.3336 275.42 64.9865 325.98H94.0616V229.955Z" fill="#FBE8B3"/>
<path d="M86.5242 259.067L95.6094 274.242L91.0648 325.98H78.4046C78.0814 254.236 86.5242 259.067 86.5242 259.067Z" fill="#EDD494"/>
<path d="M187.168 353.838H91.8309C90.4262 353.837 89.0795 353.28 88.0867 352.289C87.0938 351.298 86.5361 349.954 86.5361 348.553V235.24C86.5361 233.839 87.0938 232.496 88.0867 231.505C89.0795 230.514 90.4262 229.956 91.8309 229.955H184.89C190.113 229.955 192.471 233.004 192.471 237.867V348.537C192.473 349.233 192.337 349.922 192.071 350.566C191.806 351.209 191.416 351.794 190.923 352.286C190.43 352.779 189.845 353.169 189.201 353.436C188.556 353.702 187.865 353.839 187.168 353.838Z" fill="#FBE8B3"/>
<path d="M190.99 233.099C190.593 232.611 190.256 232.077 189.989 231.507C189.031 230.759 187.891 230.277 186.685 230.11C186.091 230.019 185.491 229.973 184.89 229.975H91.8309C90.4297 229.976 89.086 230.531 88.0937 231.517C87.1014 232.504 86.5414 233.843 86.5361 235.24C98.1071 239.387 119.769 241.704 139.499 241.704C164.66 241.704 181.147 237.982 190.99 233.099Z" fill="#EDD494"/>
<path d="M183.39 229.955C219.603 229.955 212.118 275.42 212.465 325.98H192.463" stroke="#592D3D" stroke-width="12" stroke-miterlimit="10" stroke-linecap="square"/>
<path d="M94.0616 229.955C57.8444 229.955 65.3336 275.42 64.9865 325.98H84.9644" stroke="#592D3D" stroke-width="12" stroke-miterlimit="10" stroke-linecap="square"/>
<path d="M91.8311 229.995L184.89 229.955" stroke="#592D3D" stroke-width="12" stroke-miterlimit="10"/>
<path d="M91.8309 353.838H138.362C94.8114 353.838 98.0992 261.833 86.5362 261.833V348.537C86.5341 349.232 86.6694 349.921 86.9345 350.564C87.1996 351.207 87.5892 351.791 88.0811 352.283C88.5729 352.776 89.1572 353.167 89.8007 353.433C90.4441 353.7 91.134 353.838 91.8309 353.838Z" fill="#EDD494"/>
<path d="M84.1428 270.601C84.067 269.14 84.0989 267.68 84.1627 266.223C84.2266 264.767 84.3503 263.298 84.5059 261.845C84.5857 261.113 84.6655 260.385 84.7652 259.652C84.865 258.92 84.9607 258.192 85.1044 257.46C85.3874 255.944 85.869 254.472 86.5368 253.082C87.2046 254.472 87.6862 255.944 87.9692 257.46C88.1128 258.192 88.2166 258.92 88.3083 259.652C88.4001 260.385 88.4879 261.113 88.5677 261.845C88.7193 263.306 88.839 264.767 88.9068 266.223C88.9747 267.68 89.0066 269.144 88.9308 270.601H84.1428Z" fill="#592D3D"/>
<path d="M192.463 274.242V277.426C192.567 290.958 192.567 304.887 192.463 318.319C192.463 319.461 192.463 320.595 192.463 321.714V348.541C192.465 349.236 192.329 349.924 192.064 350.567C191.798 351.209 191.409 351.793 190.917 352.285C190.425 352.777 189.841 353.167 189.198 353.434C188.555 353.7 187.865 353.838 187.168 353.838H91.8315C90.4268 353.837 89.0801 353.28 88.0873 352.289C87.0944 351.298 86.5367 349.954 86.5367 348.553V325.391C86.5367 324.392 86.5367 323.373 86.5367 322.346C86.437 308.469 86.437 294.539 86.5367 280.439V270.601" stroke="#592D3D" stroke-width="12" stroke-miterlimit="10"/>
<path d="M190.069 274.242C189.993 272.583 190.029 270.919 190.093 269.256C190.157 267.592 190.281 265.933 190.432 264.269C190.512 263.437 190.596 262.606 190.692 261.774C190.787 260.942 190.887 260.114 191.031 259.282C191.309 257.569 191.789 255.896 192.463 254.296C193.137 255.896 193.618 257.569 193.895 259.282C194.039 260.114 194.143 260.946 194.235 261.774C194.326 262.602 194.414 263.437 194.494 264.269C194.646 265.933 194.769 267.592 194.833 269.256C194.897 270.919 194.933 272.583 194.857 274.242H190.069Z" fill="#592D3D"/>
<path d="M140.326 277.769C140.325 281.938 139.377 286.054 137.552 289.805C135.727 293.556 133.073 296.846 129.79 299.427C126.507 302.009 122.68 303.814 118.596 304.707C114.513 305.6 110.28 305.559 106.215 304.585C102.15 303.612 98.3593 301.732 95.1278 299.087C91.8962 296.441 89.3079 293.1 87.5576 289.313C85.8072 285.527 84.9402 281.394 85.0219 277.225C85.1035 273.056 86.1317 268.96 88.0291 265.244" stroke="#592D3D" stroke-width="12" stroke-miterlimit="10"/>
<path d="M88.0293 265.244C89.5402 262.3 91.5672 259.648 94.0143 257.416Z" fill="#FBE8B3"/>
<path d="M85.8945 264.158C86.2449 263.33 86.6979 262.549 87.2432 261.833C87.784 261.117 88.389 260.451 89.0506 259.844C89.3858 259.541 89.7249 259.247 90.08 258.972C90.4325 258.688 90.8075 258.432 91.2012 258.208C92.0526 257.718 93.0118 257.444 93.9942 257.412C93.8907 258.344 93.6556 259.256 93.296 260.122C93.1404 260.52 92.9648 260.87 92.7813 261.225L92.2626 262.287C91.9234 262.988 91.5883 263.676 91.2451 264.353C90.9132 265.035 90.5456 265.699 90.1439 266.343L85.8945 264.158Z" fill="#592D3D"/>
<path d="M135.242 261.833C138.553 266.484 140.33 272.048 140.325 277.753Z" fill="#FBE8B3"/>
<path d="M135.242 261.833C136.604 262.57 137.788 263.596 138.709 264.838C139.168 265.442 139.582 266.08 139.946 266.744C140.317 267.409 140.653 268.094 140.964 268.794C141.576 270.201 142.039 271.668 142.344 273.172C142.654 274.681 142.78 276.222 142.719 277.761H137.931C137.856 276.467 137.788 275.182 137.652 273.888C137.516 272.595 137.345 271.309 137.094 270.012L136.894 269.041L136.663 268.066C136.495 267.417 136.316 266.768 136.148 266.104C135.771 264.697 135.469 263.272 135.242 261.833Z" fill="#592D3D"/>
<path d="M196.018 277.769C196.022 273.992 195.247 270.256 193.741 266.791C192.235 263.327 190.03 260.209 187.264 257.631" fill="#FBE8B3"/>
<path d="M193.624 277.769C193.56 276.054 193.392 274.345 193.121 272.651C192.841 270.939 192.425 269.253 191.876 267.608C191.74 267.21 191.581 266.784 191.433 266.37C191.286 265.956 191.098 265.555 190.934 265.141C190.771 264.727 190.559 264.345 190.384 263.927L189.801 262.733C189.003 261.101 188.137 259.473 187.264 257.659C189.113 258.445 190.774 259.613 192.139 261.085C192.471 261.459 192.818 261.825 193.125 262.219C193.432 262.613 193.739 263.015 194.023 263.413C194.306 263.811 194.593 264.245 194.849 264.679C195.104 265.113 195.371 265.547 195.599 266C196.549 267.8 197.272 269.711 197.753 271.687C198.245 273.676 198.462 275.722 198.4 277.769H193.624Z" fill="#592D3D"/>
<path d="M140.697 277.769C140.653 281.419 141.336 285.041 142.706 288.426C144.076 291.811 146.106 294.891 148.678 297.487C151.25 300.084 154.314 302.145 157.69 303.552C161.067 304.959 164.69 305.684 168.35 305.684C172.01 305.684 175.633 304.959 179.01 303.552C182.386 302.145 185.45 300.084 188.022 297.487C190.594 294.891 192.624 291.811 193.994 288.426C195.364 285.041 196.047 281.419 196.003 277.769" stroke="#592D3D" stroke-width="12" stroke-miterlimit="10"/>
<path d="M145.792 261.833C142.483 266.485 140.707 272.049 140.713 277.753Z" fill="#FBE8B3"/>
<path d="M145.792 261.833C145.566 263.274 145.263 264.703 144.886 266.112C144.719 266.776 144.539 267.425 144.371 268.074L144.144 269.049L143.945 270.02C143.693 271.317 143.51 272.607 143.382 273.896C143.254 275.186 143.182 276.475 143.107 277.769H138.303C138.238 276.229 138.364 274.688 138.678 273.18C138.981 271.676 139.444 270.209 140.058 268.802C140.366 268.102 140.701 267.417 141.072 266.752C141.438 266.088 141.851 265.451 142.309 264.846C143.235 263.6 144.424 262.572 145.792 261.833Z" fill="#592D3D"/>
<path d="M92.9922 261.328V229.955" stroke="#592D3D" stroke-width="12" stroke-miterlimit="10"/>
<path d="M185.968 261.328V229.955" stroke="#592D3D" stroke-width="12" stroke-miterlimit="10"/>
<path d="M127.729 285.298H149.236V293.139C142.157 290.731 134.987 290.79 127.729 293.139V285.298Z" fill="#85C5E5" stroke="#592D3D" stroke-width="12" stroke-miterlimit="10"/>
<path d="M194.602 277.769C194.611 270.782 191.954 264.054 187.168 258.952C185.484 257.153 169.504 261.416 160.112 269.801C150.891 278.035 142.863 291.487 144.012 293.182C147.322 298.082 152.123 301.793 157.706 303.767C163.289 305.742 169.36 305.876 175.026 304.15C180.691 302.423 185.651 298.928 189.175 294.179C192.7 289.43 194.602 283.677 194.602 277.769Z" fill="#85C5E5" stroke="#592D3D" stroke-width="12" stroke-miterlimit="10"/>
<path d="M178.646 265.642C176.204 267.103 173.798 268.5 171.464 270.02C169.16 271.488 166.957 273.108 164.868 274.867C162.813 276.642 160.834 278.576 158.883 280.542C156.932 282.508 155.017 284.522 152.998 286.54C154.222 283.978 155.718 281.554 157.459 279.309C159.197 277.029 161.164 274.931 163.328 273.048C165.53 271.189 167.963 269.62 170.566 268.38C173.13 267.126 175.846 266.205 178.646 265.642Z" fill="white"/>
<path d="M84.3975 277.769C84.3875 270.782 87.0454 264.054 91.8309 258.952C93.5146 257.153 109.495 261.416 118.887 269.801C128.108 278.035 136.136 291.487 134.987 293.182C131.677 298.082 126.876 301.793 121.293 303.767C115.71 305.742 109.639 305.876 103.973 304.15C98.3078 302.423 93.3478 298.928 89.8236 294.179C86.2995 289.43 84.3974 283.677 84.3975 277.769Z" fill="#85C5E5" stroke="#592D3D" stroke-width="12" stroke-miterlimit="10"/>
<path d="M121.844 301.671C112.811 301.671 104.148 298.092 97.7607 291.721C91.3734 285.35 87.7851 276.71 87.7851 267.7C87.7851 266.542 87.8437 265.385 87.9607 264.233C84.9608 269.546 83.8101 275.7 84.6884 281.734C85.5667 287.768 88.4245 293.341 92.8152 297.583C97.2059 301.825 102.882 304.497 108.956 305.18C115.03 305.864 121.161 304.521 126.388 301.361C124.882 301.565 123.364 301.669 121.844 301.671Z" fill="#67B7D6"/>
<path d="M84.3975 277.769C84.3875 270.782 87.0454 264.054 91.8309 258.952C93.5146 257.153 109.495 261.416 118.887 269.801C128.108 278.035 136.136 291.487 134.987 293.182C131.677 298.082 126.876 301.793 121.293 303.767C115.71 305.742 109.639 305.876 103.973 304.15C98.3078 302.423 93.3478 298.928 89.8236 294.179C86.2995 289.43 84.3974 283.677 84.3975 277.769Z" stroke="#592D3D" stroke-width="12" stroke-miterlimit="10"/>
<path d="M100.354 265.642C103.153 266.204 105.869 267.123 108.433 268.376C111.037 269.618 113.469 271.188 115.671 273.048C117.827 274.93 119.785 277.025 121.516 279.301C123.258 281.546 124.753 283.97 125.977 286.532C123.958 284.542 122.051 282.501 120.092 280.534C118.133 278.568 116.166 276.634 114.107 274.859C112.019 273.1 109.815 271.48 107.512 270.012C105.185 268.5 102.791 267.103 100.354 265.642Z" fill="white"/>
<path d="M158.592 265.479L141.782 251.8L171.56 229.995H107.44L137.218 251.8L120.408 265.479L105.394 242.993V274.227H174.923V241.019L158.592 265.479Z" fill="#EDD494"/>
<path d="M186.047 229.732L168.998 229.772C168.909 231.57 168.719 233.361 168.427 235.137C168.239 235.989 168.008 236.832 167.733 237.66C166.799 240.243 160.846 242.436 159.158 244.318C158.599 244.945 157.999 245.533 157.363 246.081C147.32 253.325 131.36 253.723 121.66 245.851C120.614 244.939 119.664 243.925 118.823 242.822C117.136 240.609 112.28 238.209 111.602 235.284C111.409 234.419 111.265 233.543 111.171 232.662C111.074 231.763 111.026 230.859 111.027 229.955L92.9882 229.732C91.5836 229.732 90.2364 230.289 89.2428 231.279C88.2492 232.269 87.6905 233.613 87.6895 235.014V348.314C87.6905 349.715 88.2492 351.059 89.2428 352.049C90.2364 353.039 91.5836 353.596 92.9882 353.596H188.321C189.725 353.596 191.072 353.039 192.065 352.049C193.058 351.058 193.616 349.715 193.616 348.314V237.628C193.616 232.781 191.27 229.732 186.047 229.732Z" fill="white"/>
<path d="M184.523 229.732C209.876 229.732 219.843 247.001 216.005 337.983C208.527 340.649 193.696 339.81 193.696 339.81L184.523 229.732Z" fill="white"/>
<path d="M119.973 268.432L139.304 258.845L158.688 268.432L143.901 251.311L126.389 251.641L119.973 268.432Z" fill="#E2E2E2"/>
<path d="M193.617 258.845C193.617 258.845 184.523 292.49 185.912 351.972L199.163 339.635L200.591 284.88C198.349 256.134 193.617 258.845 193.617 258.845Z" fill="#E2E2E2"/>
<path d="M95.2107 229.732C70.5605 229.732 59.7476 252.198 62.9915 327.428C71.937 331.372 85.4113 329.649 85.4113 329.649L95.2107 229.732Z" fill="white"/>
<path d="M87.6782 258.845L87.4787 329.562L82.152 329.92C80.967 270.601 87.6782 258.845 87.6782 258.845Z" fill="#E2E2E2"/>
<path d="M184.523 229.732C211.424 229.732 215.825 252.131 216.005 282.974V337.983C216.005 337.983 196.055 340.184 193.696 339.81L193.657 283.253" stroke="#592D3D" stroke-width="12" stroke-miterlimit="10" stroke-linecap="square"/>
<path d="M95.2111 229.732C84.9448 229.732 77.8466 232.964 72.9828 238.663C65.2223 247.765 63.1554 263.155 63.0078 281.752V331.01C67.8198 332.332 87.4904 329.562 87.4904 329.562L87.686 282.361" stroke="#592D3D" stroke-width="12" stroke-miterlimit="10" stroke-linecap="square"/>
<path d="M92.9885 353.596H139.5C95.9331 353.596 99.2368 261.607 87.6738 261.607V348.314C87.6743 349.009 87.8123 349.698 88.0798 350.339C88.3474 350.981 88.7392 351.564 89.2328 352.055C89.7265 352.545 90.3123 352.934 90.9568 353.198C91.6013 353.463 92.2917 353.598 92.9885 353.596Z" fill="#E2E2E2"/>
<path d="M85.2958 270.378C85.22 268.917 85.2519 267.453 85.3198 266C85.3876 264.548 85.5073 263.079 85.6589 261.622C85.7387 260.894 85.8225 260.162 85.9183 259.43C86.014 258.697 86.1138 257.969 86.2574 257.241C86.5398 255.725 87.0214 254.253 87.6898 252.863C88.3582 254.253 88.8398 255.725 89.1222 257.241C89.2659 257.969 89.3696 258.701 89.4614 259.43C89.5532 260.158 89.6409 260.894 89.7207 261.622C89.875 263.087 89.9894 264.546 90.0639 266C90.1277 267.461 90.1596 268.925 90.0639 270.378H85.2958Z" fill="#592D3D"/>
<path d="M193.617 274.004V277.188C193.72 290.719 193.72 304.648 193.617 318.084C193.617 319.226 193.617 320.36 193.617 321.479V348.306C193.617 349.707 193.059 351.05 192.066 352.041C191.073 353.031 189.726 353.588 188.322 353.588H92.9888C91.5842 353.588 90.2371 353.031 89.2435 352.041C88.2499 351.051 87.6912 349.707 87.6901 348.306V322.119C87.5864 308.246 87.5864 294.317 87.6901 280.212V270.378" stroke="#592D3D" stroke-width="12" stroke-miterlimit="10"/>
<path d="M176.411 231.913L146.618 253.727L163.432 267.409L187.141 231.893L176.411 231.913Z" fill="#E2E2E2"/>
<path d="M191.222 274.004C191.147 272.34 191.182 270.677 191.246 269.017C191.31 267.357 191.434 265.69 191.589 264.03C191.669 263.199 191.749 262.367 191.845 261.535C191.941 260.703 192.04 259.871 192.188 259.04C192.464 257.327 192.943 255.653 193.616 254.053C194.293 255.652 194.774 257.326 195.049 259.04C195.192 259.871 195.3 260.703 195.388 261.535C195.476 262.367 195.567 263.199 195.647 264.03C195.803 265.69 195.923 267.353 195.986 269.017C196.05 270.681 196.09 272.34 196.01 274.004H191.222Z" fill="#592D3D"/>
<path d="M92.9883 229.772L186.047 229.732" stroke="#592D3D" stroke-width="12" stroke-miterlimit="10"/>
<path d="M151.227 260.532L142.309 251.641L133.396 260.532L137.777 264.902L133.898 307.338L142.174 313.774L150.72 307.338L146.846 264.902L151.227 260.532Z" fill="#E2E2E2"/>
<path d="M139.516 251.641V353.596" stroke="#592D3D" stroke-width="6" stroke-miterlimit="10" stroke-linecap="square"/>
<path d="M139.516 251.641L148.434 257.746L139.516 266.641L130.603 257.746L139.516 251.641Z" fill="#85C5E5"/>
<path d="M107.428 229.987C107.428 229.987 124.693 245.644 137.218 251.8C131.121 261.833 120.408 265.487 120.408 265.487L96.6953 229.975L107.428 229.987Z" fill="white" stroke="#592D3D" stroke-width="12" stroke-miterlimit="10"/>
<path d="M171.572 229.987C171.572 229.987 155.859 246.384 141.782 251.8C145.772 259.871 158.592 265.479 158.592 265.479L182.305 229.967L171.572 229.987Z" fill="white" stroke="#592D3D" stroke-width="12" stroke-miterlimit="10"/>
<path fill-rule="evenodd" clip-rule="evenodd" d="M135.746 281.804C133.87 282.747 129.912 284.59 127.766 286.043C125.619 287.495 125.89 288.868 124.953 289.811C124.015 290.755 121.202 293.107 119.327 294.52C117.452 295.932 117.918 299.693 117.452 301.11C116.985 302.527 116.043 305.818 115.572 307.231C115.101 308.644 116.51 310.526 117.452 312.405C118.393 314.283 120.731 319.465 121.669 321.351C122.607 323.238 125.424 322.291 127.766 324.173C130.311 326.213 132.976 328.1 135.746 329.824C138.088 331.237 139.029 331.237 141.372 329.824C144.142 328.101 146.807 326.214 149.352 324.173C151.698 322.291 154.511 323.234 155.452 321.351C156.394 319.469 158.732 314.287 159.67 312.405C160.607 310.522 162.016 308.636 161.549 307.231C161.082 305.826 160.141 302.523 159.67 301.11C159.199 299.697 159.67 295.936 157.794 294.52C155.837 293.05 153.959 291.479 152.169 289.811C150.573 288.311 151.231 287.455 149.352 286.043C147.472 284.63 143.255 282.747 141.372 281.804C140.506 281.342 139.54 281.1 138.559 281.1C137.577 281.1 136.611 281.342 135.746 281.804Z" fill="white"/>
<path fill-rule="evenodd" clip-rule="evenodd" d="M129.126 289.947L137.904 295.916C138.103 296.048 138.335 296.119 138.574 296.123C138.812 296.122 139.044 296.05 139.24 295.916L148.018 289.919C148.187 289.799 148.321 289.638 148.408 289.451C148.495 289.264 148.533 289.057 148.516 288.852C148.5 288.646 148.43 288.448 148.314 288.278C148.198 288.107 148.04 287.969 147.855 287.877L139.077 283.539C138.912 283.461 138.732 283.42 138.55 283.42C138.368 283.42 138.188 283.461 138.023 283.539L129.269 287.877C129.081 287.969 128.92 288.109 128.803 288.283C128.686 288.457 128.616 288.658 128.602 288.867C128.587 289.076 128.628 289.285 128.72 289.473C128.812 289.661 128.952 289.822 129.126 289.939V289.947ZM141.55 297.799C141.549 297.994 141.596 298.186 141.686 298.359C141.777 298.531 141.908 298.679 142.069 298.79L149.108 303.589C149.327 303.737 149.59 303.808 149.854 303.79C150.118 303.773 150.369 303.669 150.568 303.494L156.469 298.229C156.6 298.113 156.704 297.97 156.774 297.81C156.843 297.649 156.877 297.476 156.872 297.301C156.867 297.127 156.824 296.955 156.745 296.799C156.667 296.643 156.555 296.506 156.417 296.398L150.783 291.905C150.584 291.746 150.339 291.655 150.084 291.645C149.829 291.635 149.578 291.707 149.367 291.849L142.069 296.828C141.91 296.936 141.78 297.081 141.689 297.25C141.598 297.419 141.549 297.607 141.546 297.799H141.55ZM124.046 304.326C124.188 304.451 124.298 304.608 124.368 304.783C124.437 304.959 124.464 305.149 124.445 305.337C124.426 305.525 124.361 305.705 124.258 305.864C124.155 306.022 124.015 306.154 123.851 306.248L119.649 308.759C119.441 308.882 119.2 308.939 118.959 308.923C118.717 308.907 118.486 308.818 118.297 308.668C118.105 308.517 117.964 308.312 117.893 308.079C117.822 307.847 117.823 307.598 117.898 307.366L119.454 302.491C119.513 302.301 119.619 302.128 119.761 301.989C119.904 301.85 120.08 301.749 120.272 301.695C120.464 301.64 120.667 301.636 120.861 301.682C121.055 301.728 121.234 301.823 121.381 301.958L124.046 304.326ZM146.841 304.835L139.24 299.661C139.043 299.53 138.811 299.459 138.574 299.459C138.337 299.459 138.105 299.53 137.908 299.661L130.327 304.835C130.176 304.938 130.052 305.073 129.962 305.231C129.872 305.389 129.819 305.565 129.808 305.747C129.798 305.929 129.829 306.111 129.898 306.28C129.967 306.45 130.072 306.602 130.207 306.726L137.788 313.491C138.007 313.687 138.292 313.793 138.586 313.79C138.88 313.791 139.164 313.685 139.384 313.491L146.965 306.726C147.102 306.604 147.21 306.452 147.279 306.282C147.348 306.113 147.377 305.929 147.364 305.747C147.352 305.565 147.298 305.388 147.207 305.23C147.115 305.072 146.989 304.937 146.837 304.835H146.841ZM126.572 303.494L120.675 298.229C120.544 298.11 120.44 297.964 120.371 297.801C120.303 297.638 120.27 297.462 120.276 297.285C120.279 297.111 120.321 296.939 120.398 296.782C120.475 296.625 120.586 296.488 120.723 296.378L126.357 291.857C126.557 291.697 126.804 291.606 127.06 291.597C127.317 291.587 127.569 291.66 127.781 291.805L135.071 296.78C135.237 296.891 135.374 297.04 135.468 297.216C135.563 297.391 135.613 297.588 135.613 297.787C135.614 297.986 135.565 298.182 135.47 298.357C135.375 298.532 135.238 298.681 135.071 298.79L128.04 303.589C127.82 303.739 127.556 303.811 127.29 303.793C127.024 303.776 126.771 303.671 126.572 303.494ZM156.848 311.056L150.843 307.474C150.625 307.346 150.372 307.29 150.121 307.314C149.869 307.339 149.632 307.442 149.443 307.609L142.105 314.14C141.955 314.275 141.842 314.446 141.776 314.637C141.71 314.827 141.694 315.032 141.728 315.23C141.763 315.429 141.848 315.616 141.974 315.773C142.101 315.93 142.265 316.053 142.452 316.13L152.631 320.245C152.918 320.359 153.239 320.357 153.525 320.241C153.811 320.125 154.041 319.902 154.167 319.62L157.319 312.572C157.439 312.306 157.458 312.005 157.371 311.727C157.284 311.448 157.098 311.211 156.848 311.06V311.056ZM157.682 302.499L159.234 307.374C159.293 307.554 159.308 307.745 159.278 307.931C159.249 308.117 159.175 308.294 159.064 308.447C158.953 308.6 158.807 308.724 158.638 308.809C158.469 308.895 158.282 308.939 158.093 308.938C157.879 308.938 157.669 308.879 157.487 308.767L153.277 306.256C153.115 306.161 152.978 306.029 152.878 305.87C152.778 305.712 152.718 305.531 152.703 305.345C152.684 305.157 152.711 304.967 152.78 304.791C152.849 304.615 152.96 304.459 153.102 304.334L155.771 301.946C155.919 301.814 156.097 301.721 156.29 301.675C156.483 301.63 156.684 301.632 156.876 301.683C157.068 301.741 157.243 301.846 157.384 301.988C157.524 302.131 157.627 302.307 157.682 302.499ZM135.418 315.234C135.451 315.033 135.432 314.825 135.362 314.633C135.292 314.441 135.174 314.27 135.019 314.136L127.681 307.605C127.492 307.438 127.255 307.335 127.003 307.311C126.751 307.286 126.499 307.342 126.281 307.47L120.296 311.052C120.044 311.205 119.856 311.445 119.768 311.726C119.68 312.007 119.697 312.311 119.817 312.58L122.977 319.628C123.103 319.908 123.333 320.129 123.618 320.245C123.904 320.36 124.223 320.362 124.509 320.249L134.684 316.138C134.873 316.062 135.04 315.939 135.168 315.781C135.297 315.623 135.383 315.435 135.418 315.234ZM139.009 317.224L147.172 320.523C147.374 320.605 147.549 320.74 147.679 320.913C147.809 321.087 147.89 321.292 147.912 321.508C147.934 321.723 147.897 321.941 147.805 322.137C147.712 322.333 147.568 322.5 147.388 322.621L139.216 328.28C139.021 328.418 138.789 328.493 138.55 328.495C138.311 328.491 138.079 328.416 137.884 328.28L129.72 322.621C129.54 322.499 129.397 322.33 129.306 322.133C129.215 321.936 129.179 321.718 129.203 321.503C129.227 321.287 129.309 321.082 129.441 320.909C129.573 320.737 129.749 320.603 129.952 320.523L138.115 317.224C138.408 317.118 138.73 317.127 139.017 317.248L139.009 317.224Z" fill="#C04927"/>
<path d="M131.104 304.553L139.38 310.988L147.926 304.553L143.936 260.862H135.094L131.104 304.553Z" fill="#85C5E5"/>
<path d="M130.603 257.746L134.984 262.116L131.105 304.553L139.381 310.988L147.927 304.553L144.053 262.116L148.434 257.746" stroke="#592D3D" stroke-width="8" stroke-miterlimit="10"/>
<path d="M135.865 260.787L135.893 260.807C135.917 260.82 135.94 260.836 135.961 260.854L136.112 260.97C136.212 261.053 136.32 261.137 136.423 261.228C136.635 261.408 136.858 261.599 137.102 261.782C137.345 261.965 137.608 262.14 137.9 262.347C138.28 262.632 138.641 262.942 138.981 263.274C138.696 263.737 138.252 264.081 137.732 264.241C137.252 264.374 136.75 264.411 136.256 264.349C135.754 264.3 135.264 264.165 134.807 263.951C134.575 263.84 134.355 263.707 134.149 263.553C134.042 263.475 133.939 263.391 133.842 263.302C133.794 263.258 133.742 263.21 133.694 263.159L133.614 263.075L133.515 262.96L135.865 260.787Z" fill="#592D3D"/>
<path opacity="0.1" d="M110.324 310.709C116.1 310.709 121.731 308.904 126.427 305.55C131.122 302.195 134.647 297.459 136.507 292.004C134.146 296.032 130.822 299.414 126.832 301.849C122.842 304.283 118.309 305.694 113.639 305.956C108.969 306.217 104.307 305.322 100.068 303.348C95.8298 301.375 92.1471 298.386 89.349 294.647L89.3291 300.509C94.4124 306.73 101.654 310.709 110.324 310.709Z" fill="black"/>
<path opacity="0.1" d="M168.675 310.709C162.899 310.709 157.268 308.904 152.572 305.55C147.877 302.195 144.352 297.459 142.492 292.004C144.853 296.032 148.177 299.414 152.167 301.849C156.157 304.283 160.69 305.694 165.36 305.956C170.03 306.217 174.692 305.322 178.931 303.348C183.169 301.375 186.852 298.386 189.65 294.647V300.505C184.587 306.73 177.345 310.709 168.675 310.709Z" fill="black"/>
<path d="M102.393 303.617C98.1355 302.032 94.3348 299.425 91.3273 296.027C88.3197 292.628 86.1979 288.543 85.1495 284.132C84.1011 279.722 84.1583 275.121 85.3161 270.738C86.4739 266.354 88.6967 262.323 91.7879 259" fill="white"/>
<path d="M102.393 303.617C97.6755 302.849 93.3193 300.622 89.9402 297.25L89.2938 296.613C89.0824 296.398 88.8948 296.163 88.6834 295.94C88.4719 295.717 88.2844 295.483 88.0928 295.252C87.8904 295.024 87.6999 294.787 87.5223 294.539C87.1632 294.05 86.8001 293.56 86.4529 293.059L85.5073 291.495C84.3138 289.352 83.4134 287.059 82.83 284.678C82.2877 282.29 82.061 279.841 82.1557 277.394C82.2643 274.964 82.7212 272.561 83.5123 270.259C83.616 269.976 83.7078 269.69 83.8156 269.407L84.1667 268.571C84.3861 268.014 84.6694 267.481 84.9288 266.944C85.4832 265.886 86.1154 264.871 86.82 263.907C87.1592 263.425 87.5462 262.972 87.9173 262.518C88.2883 262.064 88.6913 261.631 89.1143 261.233C89.9391 260.41 90.838 259.666 91.7995 259.008C89.4893 262.988 87.8494 267.043 87.1472 271.214C86.782 273.264 86.6243 275.345 86.6764 277.426C86.7533 279.491 87.0204 281.544 87.4744 283.559C87.9662 285.564 88.6504 287.516 89.5173 289.39C90.4039 291.283 91.4843 293.079 92.7412 294.75C94.0126 296.478 95.4579 298.072 97.0544 299.506C98.7304 301.005 100.515 302.379 102.393 303.617Z" fill="#592D3D"/>
<path d="M176.627 303.617C180.883 302.03 184.682 299.421 187.687 296.022C190.693 292.623 192.812 288.537 193.859 284.127C194.905 279.716 194.846 275.116 193.687 270.734C192.528 266.352 190.304 262.321 187.212 259" fill="white"/>
<path d="M176.627 303.617C178.501 302.384 180.281 301.015 181.954 299.522C183.55 298.088 184.995 296.494 186.267 294.766C187.524 293.095 188.604 291.298 189.491 289.405C190.358 287.532 191.042 285.579 191.534 283.575C191.988 281.56 192.255 279.507 192.332 277.442C192.389 275.353 192.236 273.264 191.873 271.206C191.171 267.035 189.531 262.992 187.22 259C188.182 259.658 189.081 260.402 189.906 261.225C190.337 261.622 190.704 262.076 191.103 262.51C191.502 262.944 191.861 263.417 192.2 263.899C192.905 264.863 193.537 265.878 194.091 266.936C194.351 267.473 194.634 268.006 194.853 268.563L195.204 269.399C195.312 269.682 195.404 269.968 195.508 270.251C196.299 272.553 196.756 274.956 196.864 277.386C196.959 279.833 196.732 282.282 196.19 284.67C195.607 287.051 194.706 289.344 193.513 291.487L192.567 293.051C192.22 293.552 191.857 294.042 191.498 294.531C191.32 294.779 191.13 295.016 190.927 295.244C190.732 295.475 190.528 295.705 190.337 295.932C190.145 296.159 189.938 296.39 189.726 296.605L189.08 297.242C185.702 300.617 181.345 302.847 176.627 303.617Z" fill="#592D3D"/>
<path d="M48.2885 157.563C47.8895 146.276 55.4705 136.725 65.5572 132.267C66.6164 131.835 67.7043 131.476 68.813 131.193C74.4029 129.807 80.2855 130.18 85.6548 132.259C86.8819 132.729 88.0751 133.282 89.2259 133.915C101.008 140.235 106.299 155.107 101.739 167.13C101.276 168.342 100.719 169.516 100.071 170.64C98.4795 173.947 96.0762 176.798 93.0842 178.93C92.0861 179.663 91.0397 180.328 89.9521 180.92C79.0275 186.094 64.2644 184.502 55.4585 176.383C54.5777 175.45 53.7631 174.457 53.0206 173.41C52.1738 172.215 51.4303 170.95 50.7982 169.629C49.4603 166.928 48.6878 163.983 48.5279 160.973C48.3834 159.842 48.3035 158.703 48.2885 157.563Z" fill="#EDD494"/>
<path d="M47.6381 150.26C47.2391 138.973 54.8201 129.422 64.9068 124.964C65.9647 124.532 67.0512 124.173 68.1587 123.89C73.7498 122.504 79.6339 122.876 85.0045 124.956C86.2275 125.426 87.4167 125.979 88.5635 126.612C100.346 132.936 105.637 147.804 101.076 159.827C100.617 161.041 100.06 162.215 99.4083 163.337C98.8568 164.416 98.2288 165.453 97.5291 166.442C96.8394 167.422 96.0821 168.353 95.2627 169.228C94.377 170.102 93.4275 170.909 92.4219 171.643C91.4243 172.377 90.3779 173.042 89.2897 173.633C78.3651 178.807 63.6021 177.215 54.8002 169.096C53.9172 168.165 53.1024 167.171 52.3623 166.123C51.5142 164.928 50.7694 163.663 50.1358 162.342C48.7889 159.632 48.0135 156.675 47.8576 153.655C47.7164 152.528 47.6431 151.395 47.6381 150.26Z" fill="white"/>
<path d="M75.0654 155.374C77.7626 155.374 79.9492 153.193 79.9492 150.503C79.9492 147.812 77.7626 145.631 75.0654 145.631C72.3682 145.631 70.1816 147.812 70.1816 150.503C70.1816 153.193 72.3682 155.374 75.0654 155.374Z" fill="#592D3D"/>
<path d="M75.3405 123.058C71.7496 123.053 68.1932 123.757 64.8756 125.128C61.5581 126.498 58.5448 128.509 56.009 131.045C55.0174 132.036 54.1024 133.101 53.2718 134.229C51.5547 136.458 50.1704 138.923 49.1621 141.548H101.164C99.8153 136.824 97.0057 132.646 93.1359 129.609C92.3376 128.926 91.501 128.29 90.6302 127.702C86.1145 124.663 80.7882 123.045 75.3405 123.058Z" fill="#FBE8B3" stroke="#592D3D" stroke-width="8" stroke-miterlimit="10"/>
<path d="M49.3613 159.405C51.5558 164.878 55.466 169.725 60.5014 172.666C61.7978 173.399 63.1523 174.025 64.5513 174.537C74.3786 178.154 86.4963 176.554 94.2728 169.916C95.3174 168.981 96.2897 167.969 97.1815 166.887C97.8532 166.08 98.4666 165.226 99.0169 164.332C99.8148 162.75 100.474 161.101 100.988 159.405H49.3613Z" fill="#FBE8B3" stroke="#592D3D" stroke-width="8" stroke-miterlimit="10"/>
<path d="M47.6381 150.26C47.2391 138.973 54.8201 129.422 64.9068 124.964C65.9647 124.532 67.0512 124.173 68.1587 123.89C73.7498 122.504 79.6339 122.876 85.0045 124.956C86.2275 125.426 87.4167 125.979 88.5635 126.612C100.346 132.936 105.637 147.804 101.076 159.827C100.617 161.041 100.06 162.215 99.4083 163.337C98.8568 164.416 98.2288 165.453 97.5291 166.442C96.8394 167.422 96.0821 168.353 95.2627 169.228C94.377 170.102 93.4275 170.909 92.4219 171.643C91.4243 172.377 90.3779 173.042 89.2897 173.633C78.3651 178.807 63.6021 177.215 54.8002 169.096C53.9172 168.165 53.1024 167.171 52.3623 166.123C51.5142 164.928 50.7694 163.663 50.1358 162.342C48.7889 159.632 48.0135 156.675 47.8576 153.655C47.7164 152.528 47.6431 151.395 47.6381 150.26Z" stroke="#592D3D" stroke-width="12" stroke-miterlimit="10"/>
<path d="M172.972 154.355C173.143 148.334 175.633 142.38 178.997 137.907C179.855 136.704 180.805 135.57 181.837 134.512C186.428 129.744 192.575 126.767 199.171 126.118C205.767 125.468 212.378 127.189 217.815 130.97C218.722 131.601 219.592 132.282 220.421 133.011C231.194 141.548 232.439 158.14 226.533 170.115C225.96 171.067 225.322 171.979 224.626 172.845C223.703 174 222.692 175.081 221.602 176.081C213.514 183.177 200.93 184.888 190.715 181.024C189.26 180.476 187.852 179.811 186.506 179.034C179.364 174.744 174.388 166.661 173.167 158.247C173.001 156.957 172.935 155.656 172.972 154.355Z" fill="#EDD494"/>
<path d="M175.162 149.778C175.33 144.147 177.724 138.575 180.956 134.392C181.787 133.264 182.702 132.2 183.693 131.209C188.181 126.734 194.088 123.954 200.404 123.347C206.72 122.739 213.052 124.341 218.314 127.877C219.185 128.465 220.021 129.102 220.82 129.784C231.194 137.771 232.391 153.292 226.701 164.496C226.15 165.389 225.537 166.243 224.866 167.051C223.975 168.131 223.003 169.142 221.957 170.075C214.173 176.737 202.063 178.329 192.236 174.708C190.834 174.194 189.477 173.567 188.178 172.833C181.307 168.822 176.519 161.26 175.342 153.392C175.185 152.194 175.125 150.986 175.162 149.778Z" fill="white"/>
<path d="M203.024 155.374C205.722 155.374 207.908 153.193 207.908 150.503C207.908 147.812 205.722 145.631 203.024 145.631C200.327 145.631 198.141 147.812 198.141 150.503C198.141 153.193 200.327 155.374 203.024 155.374Z" fill="#592D3D"/>
<path d="M203.025 123.229C199.434 123.225 195.878 123.928 192.56 125.299C189.243 126.669 186.229 128.681 183.694 131.216C182.703 132.208 181.788 133.272 180.956 134.4C179.24 136.628 177.856 139.092 176.847 141.715H228.848C227.499 136.992 224.69 132.814 220.82 129.776C220.022 129.094 219.185 128.457 218.315 127.869C213.799 124.831 208.472 123.215 203.025 123.229Z" fill="#FBE8B3" stroke="#592D3D" stroke-width="8" stroke-miterlimit="10"/>
<path d="M177.046 159.573C179.244 165.049 183.151 169.896 188.186 172.833C189.483 173.567 190.837 174.194 192.236 174.708C202.063 178.325 214.181 176.721 221.957 170.083C223.003 169.15 223.975 168.139 224.866 167.059C225.537 166.251 226.15 165.397 226.701 164.503C227.502 162.92 228.161 161.27 228.673 159.573H177.046Z" fill="#FBE8B3" stroke="#592D3D" stroke-width="8" stroke-miterlimit="10"/>
<path d="M175.162 149.778C175.33 144.147 177.724 138.575 180.956 134.392C181.787 133.264 182.702 132.2 183.693 131.209C188.181 126.734 194.088 123.954 200.404 123.347C206.72 122.739 213.052 124.341 218.314 127.877C219.185 128.465 220.021 129.102 220.82 129.784C231.194 137.771 232.391 153.292 226.701 164.496C226.15 165.389 225.537 166.243 224.866 167.051C223.975 168.131 223.003 169.142 221.957 170.075C214.173 176.737 202.063 178.329 192.236 174.708C190.834 174.194 189.477 173.567 188.178 172.833C181.307 168.822 176.519 161.26 175.342 153.392C175.185 152.194 175.125 150.986 175.162 149.778Z" stroke="#592D3D" stroke-width="12" stroke-miterlimit="10"/>
<path d="M139.381 205.344C151.269 205.344 160.907 195.731 160.907 183.873C160.907 172.015 151.269 162.402 139.381 162.402C127.492 162.402 117.854 172.015 117.854 183.873C117.854 195.731 127.492 205.344 139.381 205.344Z" fill="#592D3D"/>
<path d="M135.993 192.016C130.379 190.675 124.973 192.414 122.646 195.944C124.877 199.312 128.11 201.896 131.891 203.334C135.672 204.772 139.81 204.991 143.722 203.959C144.536 203.745 145.336 203.479 146.116 203.163C146.654 198.384 142.325 193.524 135.993 192.016Z" fill="#F28195"/>
<path d="M130.981 187.483H131.301H131.56C131.732 187.483 131.895 187.483 132.059 187.507C132.386 187.531 132.711 187.577 133.032 187.646C133.685 187.773 134.32 187.978 134.924 188.255C136.191 188.822 137.269 189.741 138.028 190.902C138.744 192.001 139.128 193.283 139.133 194.595C139.131 195.802 138.756 196.979 138.06 197.966C137.541 196.867 137.166 195.896 136.739 195.064C136.55 194.669 136.334 194.288 136.093 193.922C135.869 193.599 135.608 193.304 135.315 193.043C134.757 192.557 134.101 192.196 133.391 191.984C133.018 191.87 132.638 191.778 132.254 191.709C132.059 191.682 131.855 191.646 131.668 191.622L131.376 191.594H131.245C131.213 191.594 131.141 191.594 131.169 191.594L130.981 187.483Z" fill="#592D3D"/>
<path d="M139.381 205.344C151.269 205.344 160.907 195.731 160.907 183.873C160.907 172.015 151.269 162.402 139.381 162.402C127.492 162.402 117.854 172.015 117.854 183.873C117.854 195.731 127.492 205.344 139.381 205.344Z" stroke="#592D3D" stroke-width="8" stroke-miterlimit="10"/>
<path d="M231.059 92.7716H55.8018V118.302H231.059V92.7716Z" fill="#EDD494"/>
<path d="M223.29 193.715C222.037 195.259 220.746 196.768 219.416 198.24C218.418 199.343 220.445 197.794 223.29 193.715ZM229.275 67.7347C217.106 46.0806 195.959 31.1723 171.508 24.3111L168.974 23.6306C159.917 21.1313 150.373 20.8447 140.518 20.8447C129.868 20.8447 119.586 21.9352 109.886 24.8245L108.187 25.33C95.276 29.701 83.2653 36.3672 72.7355 45.0061C71.5731 45.9559 70.4333 46.927 69.3161 47.9193C58.0084 57.3474 49.2304 69.2868 43.1935 82.9017C42.6083 84.2071 42.0551 85.5244 41.5337 86.8537C39.9765 90.8143 38.7214 94.8866 37.7791 99.0358C24.9872 149.412 44.8933 180.319 62.561 199.263C64.3046 201.134 39.4469 158.729 55.6104 113.299C58.6947 113.184 63.6862 113.096 70.0502 113.033L76.2347 92.891L83.1933 112.941C94.1259 112.889 107.085 112.882 120.651 112.893L125.567 92.0552L131.121 112.901C160.795 112.957 191.546 113.108 209.038 113.208L214.305 92.4453L220.29 113.272L223.565 113.291C243.551 155.644 230.672 183.157 223.29 193.715C238.629 174.846 246.985 151.283 246.951 126.99C246.951 92.5965 229.275 67.7347 229.275 67.7347Z" fill="#D69AC7"/>
<path d="M223.29 193.715C222.037 195.259 220.746 196.768 219.416 198.24C218.418 199.343 220.445 197.794 223.29 193.715ZM223.29 193.715C230.672 183.157 243.551 155.644 223.565 113.291L220.29 113.272L214.305 92.4453L209.038 113.208C191.546 113.108 160.795 112.957 131.121 112.901L125.567 92.0552L120.651 112.893C107.085 112.882 94.1259 112.889 83.1933 112.941L76.2347 92.891L70.0502 113.033C63.6862 113.096 58.6947 113.184 55.6104 113.299C39.4469 158.729 64.3046 201.134 62.561 199.263C44.8933 180.319 24.9872 149.412 37.7791 99.0358C38.7214 94.8866 39.9765 90.8143 41.5337 86.8537C42.0551 85.5244 42.6083 84.2071 43.1935 82.9017C49.2304 69.2868 58.0084 57.3474 69.3161 47.9193C70.4333 46.927 71.5731 45.9559 72.7355 45.0061C83.2653 36.3672 95.276 29.701 108.187 25.33L109.886 24.8245C119.586 21.9352 129.868 20.8447 140.518 20.8447C150.373 20.8447 159.917 21.1313 168.974 23.6306L171.508 24.3111C195.959 31.1723 217.106 46.0806 229.275 67.7347C229.275 67.7347 246.951 92.5965 246.951 126.99C246.985 151.283 238.629 174.846 223.29 193.715Z" stroke="#592D3D" stroke-width="12" stroke-miterlimit="10"/>
<path d="M173.076 18.7394L170.494 18.0469C160.436 15.2611 150.173 15.0422 140.518 15.0422C128.312 15.0422 117.747 16.4311 108.234 19.2767L106.535 19.7821L106.339 19.8418C92.7719 24.4574 80.1464 31.4671 69.0646 40.5368C67.8676 41.5158 66.6706 42.5267 65.5375 43.5415C53.7151 53.4194 44.4184 65.8722 37.9107 80.5536C37.2883 81.9426 36.7137 83.3594 36.1471 84.7603C34.4793 89.0147 27.6524 108.548 26.6709 112.878L55.6104 113.276C58.6946 113.16 63.6861 113.073 70.0502 113.009L76.2347 92.8671L83.1932 112.917C94.1258 112.866 107.085 112.858 120.651 112.87L125.567 92.0314L131.121 112.901C160.795 112.957 191.546 113.108 209.038 113.208L214.305 92.4453L220.29 113.272L223.565 113.291L252.736 126.99C252.736 92.688 236.258 67.6909 234.191 64.6663C221.694 42.6182 200 26.301 173.076 18.7394ZM239.374 145.794C238.109 135.479 234.917 123.802 228.796 110.836L227.244 107.545H224.655L213.969 70.2818L204.537 107.413C188.406 107.326 161.82 107.198 135.566 107.139L125.212 68.3078L116.059 107.111C105.126 107.111 95.4904 107.111 87.295 107.147L75.8995 74.2695L65.7569 107.302C61.1884 107.362 57.7131 107.437 55.3829 107.525L51.4608 107.676L50.1481 111.361C44.4264 127.475 42.9102 144.899 45.6394 163.206C39.2953 147.287 36.6778 126.835 43.385 100.473L43.4209 100.321C44.3029 96.455 45.4767 92.6607 46.9321 88.9709C47.4109 87.7411 47.9336 86.4955 48.4922 85.2498C54.2937 72.1722 62.553 61.1043 73.0347 52.3647L73.1664 52.2493C74.2237 51.3141 75.317 50.3828 76.4142 49.4833C86.3788 41.3176 97.7304 34.9999 109.93 30.83L111.546 30.3525C119.973 27.8293 129.449 26.5995 140.514 26.5995C149.379 26.5995 158.76 26.8025 167.426 29.1943L169.972 29.8749C194.008 36.6405 213.275 51.0753 224.236 70.5604L224.383 70.823L224.559 71.0737C224.727 71.3086 241.161 94.8053 241.161 126.99C241.16 133.3 240.561 139.596 239.374 145.794Z" fill="#D69AC7"/>
<path d="M223.29 193.715C222.037 195.259 220.746 196.768 219.416 198.24C218.418 199.343 220.445 197.795 223.29 193.715ZM223.29 193.715C230.672 183.157 243.551 155.645 223.565 113.291L220.29 113.272L214.305 92.4453L209.038 113.208C191.546 113.108 160.795 112.957 131.121 112.901L125.567 92.0553L120.651 112.894C107.085 112.882 94.1257 112.89 83.1931 112.941L76.2346 92.8911L70.0501 113.033C63.686 113.096 58.6945 113.184 55.6103 113.299C39.4468 158.729 64.3045 201.134 62.5609 199.263" stroke="#592D3D" stroke-width="12" stroke-miterlimit="10"/>
<path d="M53.5078 112.205C53.5796 111.907 53.6395 111.68 53.7193 111.433C53.7991 111.186 53.8789 110.955 53.9667 110.725C54.1502 110.259 54.3657 109.805 54.5692 109.363C55.0144 108.474 55.528 107.619 56.1053 106.808C56.6756 105.982 57.3279 105.216 58.0524 104.52C58.842 103.774 59.7999 103.228 60.8454 102.928C60.858 103.957 60.7414 104.984 60.4983 105.985C60.3866 106.438 60.2629 106.88 60.1272 107.306L59.7282 108.599C59.4622 109.456 59.1962 110.304 58.9302 111.142C58.7986 111.564 58.6589 111.974 58.5312 112.388C58.4634 112.591 58.3836 112.786 58.3078 112.997C58.232 113.208 58.1522 113.395 58.0843 113.554L53.5078 112.205Z" fill="#592D3D"/>
<path d="M223.562 110.904C224.389 110.838 225.221 110.846 226.047 110.927C226.883 110.999 227.714 111.113 228.537 111.27C228.936 111.349 229.367 111.429 229.782 111.524C230.202 111.613 230.617 111.727 231.023 111.867C231.938 112.175 232.784 112.659 233.513 113.291C232.783 113.924 231.938 114.409 231.023 114.72C230.617 114.859 230.202 114.972 229.782 115.059C229.383 115.158 228.952 115.238 228.537 115.317C227.707 115.471 226.877 115.585 226.047 115.659C225.221 115.74 224.389 115.746 223.562 115.679V110.904Z" fill="#592D3D"/>
<path d="M117.491 107.915C117.589 106.015 117.787 104.122 118.086 102.244C118.373 100.373 118.724 98.5145 119.127 96.6718C119.53 94.8292 119.985 92.9905 120.5 91.1678C121.015 89.3329 121.631 87.5274 122.343 85.7592C122.247 87.659 122.047 89.5523 121.745 91.4304C121.457 93.3009 121.11 95.1582 120.703 97.0021C120.296 98.8461 119.839 100.681 119.331 102.506C118.813 104.34 118.199 106.145 117.491 107.915Z" fill="white"/>
<path d="M206.532 107.915C206.63 106.015 206.828 104.122 207.127 102.244C207.417 100.373 207.764 98.5158 208.168 96.6719C208.572 94.8279 209.023 92.9945 209.521 91.1718C210.03 89.3387 210.639 87.5345 211.344 85.7672C211.249 87.667 211.051 89.5602 210.75 91.4384C210.457 93.3089 210.11 95.1662 209.708 97.0101C209.309 98.8568 208.846 100.691 208.332 102.514C207.828 104.345 207.228 106.148 206.532 107.915Z" fill="white"/>
<path d="M34.7822 114.358C35.5891 109.13 37.1227 104.04 39.3388 99.2348Z" fill="#D69AC7"/>
<path d="M32.4082 114.06C32.4441 113.662 32.48 113.323 32.5359 112.973C32.5917 112.623 32.6516 112.289 32.7194 111.946C32.8591 111.27 33.0187 110.601 33.2102 109.956C33.5856 108.634 34.0481 107.338 34.5947 106.076C35.1227 104.806 35.7497 103.579 36.47 102.407C37.2238 101.19 38.1964 100.123 39.3388 99.2587C39.4191 100.645 39.3549 102.036 39.1473 103.41C39.0476 104.058 38.9438 104.703 38.8161 105.336C38.6885 105.969 38.5847 106.605 38.485 107.238L37.8346 111.015L37.5034 112.878C37.4555 113.188 37.3917 113.498 37.3358 113.801C37.28 114.103 37.2161 114.426 37.1603 114.672L32.4082 114.06Z" fill="#592D3D"/>
<path d="M246.963 125.398C246.963 125.398 246.779 117.128 243.623 106.442Z" fill="#D69AC7"/>
<path d="M244.569 125.446L244.473 124.347C244.441 123.949 244.409 123.579 244.385 123.197L244.206 120.873L243.843 116.177C243.723 114.605 243.559 113.029 243.444 111.429C243.412 110.633 243.38 109.813 243.404 108.985C243.413 108.133 243.479 107.282 243.603 106.438C244.69 107.744 245.575 109.205 246.229 110.772C246.556 111.532 246.845 112.308 247.095 113.096C247.362 113.892 247.589 114.688 247.817 115.484C248.265 117.078 248.623 118.695 248.89 120.328C249.022 121.144 249.141 121.967 249.213 122.799C249.256 123.213 249.288 123.631 249.309 124.053C249.333 124.479 249.341 124.877 249.337 125.358L244.569 125.446Z" fill="#592D3D"/>
<path d="M142.173 21.7243C136.49 22.0515 130.831 22.7066 125.224 23.6863C123.835 23.9569 122.431 24.2514 121.058 24.5062C119.685 24.7609 118.305 25.1469 116.928 25.4653L112.835 26.5478C111.478 26.9458 110.133 27.3756 108.785 27.7895C103.404 29.5207 98.1465 31.6122 93.0482 34.0497C87.9283 36.5293 82.9661 39.3205 78.1895 42.4073C82.4441 38.5344 87.1422 35.1761 92.1864 32.4021C97.2329 29.5857 102.547 27.2754 108.051 25.5051C109.439 25.1071 110.82 24.6733 112.208 24.2912C113.597 23.9092 115.001 23.5669 116.418 23.2565C117.834 22.9461 119.251 22.6993 120.667 22.4605C122.083 22.2217 123.524 22.0347 124.952 21.8556C130.669 21.1595 136.446 21.1155 142.173 21.7243Z" fill="white"/>
<path d="M180.637 108.002C185.043 106.883 189.506 105.998 194.007 105.352L192.966 105.499C198.221 104.735 203.554 104.671 208.826 105.308L207.765 105.165C209.074 105.344 210.374 105.563 211.683 105.726L210.622 105.587C214.593 106.13 218.523 106.941 222.384 108.014C224.379 108.571 226.817 107.33 227.292 105.228C227.553 104.211 227.407 103.131 226.886 102.218C226.365 101.305 225.509 100.629 224.499 100.333C219.972 99.0969 215.361 98.195 210.701 97.635L211.759 97.7783C207.358 96.9992 202.882 96.7387 198.42 97.0022C193.981 97.2934 189.567 97.8972 185.213 98.809C182.975 99.2627 180.749 99.7801 178.526 100.325C176.499 100.823 175.091 103.215 175.733 105.22C176.032 106.227 176.71 107.08 177.625 107.599C178.539 108.118 179.62 108.264 180.641 108.006L180.637 108.002Z" fill="#592D3D"/>
<path d="M44.2426 127.873L49.8805 127.284L63.3148 125.884L79.6499 124.176L93.6867 122.708C95.969 122.473 98.2513 122.242 100.534 121.995H100.629C101.719 121.884 102.652 121.629 103.45 120.829C104.198 120.083 104.618 119.071 104.618 118.016C104.618 116.96 104.198 115.948 103.45 115.202C102.72 114.529 101.663 113.928 100.629 114.036L94.9914 114.625L81.5571 116.03L65.1981 117.737L51.1613 119.201C48.879 119.44 46.5967 119.671 44.3144 119.918H44.2187C43.1294 120.033 42.1958 120.288 41.3978 121.084C41.0268 121.454 40.7325 121.892 40.5317 122.376C40.3309 122.859 40.2275 123.377 40.2275 123.9C40.2275 124.423 40.3309 124.941 40.5317 125.424C40.7325 125.907 41.0268 126.346 41.3978 126.715C42.1279 127.384 43.1853 127.989 44.2187 127.877L44.2426 127.873Z" fill="#592D3D"/>
<path opacity="0.15" d="M229.275 179.452C233.731 172.026 237.255 164.083 239.768 155.8C232.89 170.024 219.882 181.851 203.016 181.851C191.738 181.837 180.926 177.361 172.952 169.405C164.977 161.45 160.492 150.664 160.479 139.415C160.463 133.927 161.525 128.489 163.603 123.408H242.442C244.175 127.643 245.202 132.131 245.482 136.697C245.773 133.513 245.929 130.253 245.929 126.978C245.927 123.122 245.717 119.27 245.298 115.437H169.425H108.833H33.6968C33.2786 119.27 33.0682 123.122 33.0664 126.978C33.0664 128.86 33.1223 130.727 33.218 132.586C33.7245 129.438 34.5907 126.359 35.7996 123.408H114.642C117.264 129.853 118.259 136.841 117.539 143.759C116.819 150.677 114.406 157.313 110.513 163.083C106.621 168.853 101.366 173.581 95.2125 176.852C89.0586 180.122 82.1936 181.835 75.2208 181.84C59.7396 181.84 47.7616 171.56 40.3162 159.198C42.8266 166.548 46.1396 173.6 50.1955 180.228C57.9321 185.031 65.4572 189.799 75.2208 189.799C88.614 189.783 101.454 184.47 110.926 175.025C120.397 165.58 125.727 152.774 125.746 139.415C125.746 138.695 125.746 137.978 125.698 137.266C135.027 133.99 143.861 133.943 152.555 137.123C152.523 137.883 152.499 138.647 152.499 139.415C152.515 152.776 157.843 165.585 167.315 175.033C176.787 184.481 189.629 189.795 203.024 189.811C213.315 189.811 221.295 184.737 229.275 179.452ZM153.568 129.051C144.232 126.047 134.56 126.098 124.709 129.207C124.304 127.244 123.78 125.308 123.141 123.408H155.101C154.477 125.257 153.966 127.141 153.568 129.051Z" fill="black"/>
<path opacity="0.95" d="M33.2021 114.979C33.2021 114.979 33.3657 127.806 33.3657 134.957C33.3657 160.591 49.5173 181.374 75.2208 181.374C83.0784 181.37 90.8072 179.383 97.6873 175.597C104.567 171.812 110.375 166.351 114.569 159.723C118.763 153.095 121.207 145.517 121.673 137.693C122.139 129.87 120.613 122.055 117.236 114.979H33.2021Z" fill="#592D3D"/>
<path opacity="0.95" d="M161.01 114.979C157.633 122.055 156.106 129.87 156.572 137.693C157.039 145.517 159.483 153.095 163.677 159.723C167.87 166.351 173.678 171.812 180.558 175.597C187.438 179.383 195.167 181.37 203.025 181.374C228.728 181.374 245.933 160.591 245.933 134.957C245.933 127.794 245.043 114.979 245.043 114.979H161.01Z" fill="#592D3D"/>
<path opacity="0.25" d="M67.6799 177.478L116.785 128.494C115.706 126.067 114.368 123.763 112.795 121.621L60.7852 173.506C62.935 175.071 65.2463 176.403 67.6799 177.478Z" fill="white"/>
<path d="M121.888 129.987C133.666 125.211 145.241 125.044 156.601 129.987" stroke="#592D3D" stroke-width="20" stroke-miterlimit="10"/>
<path d="M49.4372 128.88C50.2591 131.471 47.0671 133.461 44.6731 133.859C42.2791 133.859 40.6831 132.267 39.8851 130.277C39.4861 128.287 39.8851 126.297 41.4811 125.103C43.4761 124.308 46.2691 123.512 48.0407 125.549C48.4841 125.984 48.836 126.502 49.0758 127.074C49.3156 127.646 49.4385 128.26 49.4372 128.88Z" fill="white"/>
<path d="M53.7151 127.36C53.4717 129.083 51.0777 129.083 50.6787 127.491C50.6787 126.297 51.0777 125.899 52.2109 125.86C52.6098 125.86 52.9924 126.018 53.2745 126.299C53.5566 126.581 53.7151 126.962 53.7151 127.36Z" fill="white"/>
<path opacity="0.25" d="M197.431 174.318L239.836 132.02C239.607 130.514 239.286 129.023 238.875 127.555L192.966 173.359C194.433 173.768 195.924 174.088 197.431 174.318Z" fill="white"/>
<path d="M175.681 129.27C176.503 131.861 173.311 133.851 170.917 134.249C168.523 134.249 166.927 132.657 166.129 130.667C165.73 128.677 166.129 126.687 167.725 125.493C169.72 124.698 172.513 123.902 174.289 125.939C174.732 126.374 175.083 126.893 175.322 127.465C175.561 128.037 175.683 128.651 175.681 129.27Z" fill="white"/>
<path d="M179.939 127.75C179.695 129.473 177.301 129.473 176.902 127.881C176.902 126.687 177.301 126.289 178.439 126.25C178.636 126.25 178.831 126.289 179.014 126.364C179.196 126.439 179.361 126.55 179.501 126.689C179.64 126.829 179.751 126.994 179.826 127.176C179.901 127.358 179.939 127.553 179.939 127.75Z" fill="white"/>
<path d="M33.2026 114.979C33.2026 114.979 33.0669 127.591 33.3661 134.957C34.4035 160.571 49.5177 181.374 75.2212 181.374C83.0788 181.37 90.8076 179.383 97.6877 175.597C104.568 171.812 110.375 166.351 114.569 159.723C118.763 153.095 121.207 145.517 121.673 137.693C122.14 129.87 120.613 122.055 117.236 114.979H33.2026Z" stroke="#592D3D" stroke-width="20" stroke-miterlimit="10"/>
<path d="M161.01 114.979C157.633 122.055 156.106 129.87 156.572 137.693C157.039 145.517 159.483 153.095 163.677 159.723C167.87 166.351 173.678 171.812 180.558 175.597C187.438 179.383 195.167 181.37 203.025 181.374C228.728 181.374 245.933 160.866 245.933 135.232C245.933 128.068 245.043 114.979 245.043 114.979H161.01Z" stroke="#592D3D" stroke-width="20" stroke-miterlimit="10"/>
<path d="M108.833 114.975H169.413" stroke="#592D3D" stroke-width="20" stroke-miterlimit="10"/>
</g>
</svg>
